{
	"asset":{
		"generator":"Khronos glTF Blender I/O v4.0.44",
		"version":"2.0"
	},
	"extensionsUsed":[
		"KHR_materials_specular",
		"KHR_materials_ior"
	],
	"scene":0,
	"scenes":[
		{
			"name":"Scene",
			"nodes":[
				0
			]
		}
	],
	"nodes":[
		{
			"mesh":0,
			"name":"Car"
		}
	],
	"materials":[
		{
			"doubleSided":true,
			"extensions":{
				"KHR_materials_specular":{
					"specularFactor":0
				},
				"KHR_materials_ior":{
					"ior":1.4500000476837158
				}
			},
			"name":"Car_body",
			"pbrMetallicRoughness":{
				"baseColorFactor":[
					0.7289999723434448,
					0.7289999723434448,
					0.7289999723434448,
					1
				],
				"metallicFactor":0.20000000298023224,
				"roughnessFactor":0.4000000059604645
			}
		},
		{
			"alphaMode":"BLEND",
			"doubleSided":true,
			"extensions":{
				"KHR_materials_specular":{
					"specularFactor":0
				},
				"KHR_materials_ior":{
					"ior":1.4500000476837158
				}
			},
			"name":"Car_win",
			"pbrMetallicRoughness":{
				"baseColorFactor":[
					0.13699999451637268,
					0.14499999582767487,
					0.14900000393390656,
					0.949999988079071
				],
				"metallicFactor":0.4000000059604645,
				"roughnessFactor":0.6000000238418579
			}
		},
		{
			"doubleSided":true,
			"extensions":{
				"KHR_materials_specular":{
					"specularFactor":0
				},
				"KHR_materials_ior":{
					"ior":1.4500000476837158
				}
			},
			"name":"Car_wheel",
			"pbrMetallicRoughness":{
				"baseColorFactor":[
					0.05000000074505806,
					0.05000000074505806,
					0.05000000074505806,
					1
				],
				"metallicFactor":0.6000000238418579,
				"roughnessFactor":0.20000000298023224
			}
		},
		{
			"doubleSided":true,
			"extensions":{
				"KHR_materials_specular":{
					"specularColorFactor":[
						2.0,
						2.0,
						2.0
					]
				},
				"KHR_materials_ior":{
					"ior":1.4500000476837158
				}
			},
			"name":"Car_metal",
			"pbrMetallicRoughness":{
				"baseColorFactor":[
					0.6848141551017761,
					0.6848141551017761,
					0.6848141551017761,
					1
				],
				"roughnessFactor":0.30000001192092896
			}
		}
	],
	"meshes":[
		{
			"name":"\u7f51\u683c.001",
			"primitives":[
				{
					"attributes":{
						"POSITION":0,
						"NORMAL":1,
						"TEXCOORD_0":2
					},
					"indices":3,
					"material":0
				},
				{
					"attributes":{
						"POSITION":4,
						"NORMAL":5,
						"TEXCOORD_0":6
					},
					"indices":7,
					"material":1
				},
				{
					"attributes":{
						"POSITION":8,
						"NORMAL":9,
						"TEXCOORD_0":10
					},
					"indices":11,
					"material":2
				},
				{
					"attributes":{
						"POSITION":12,
						"NORMAL":13,
						"TEXCOORD_0":14
					},
					"indices":15,
					"material":3
				}
			]
		}
	],
	"accessors":[
		{
			"bufferView":0,
			"componentType":5126,
			"count":1016,
			"max":[
				0.17508983612060547,
				0.25764477252960205,
				0.4114726781845093
			],
			"min":[
				-0.1775030940771103,
				0.03465794026851654,
				-0.4163251221179962
			],
			"type":"VEC3"
		},
		{
			"bufferView":1,
			"componentType":5126,
			"count":1016,
			"type":"VEC3"
		},
		{
			"bufferView":2,
			"componentType":5126,
			"count":1016,
			"type":"VEC2"
		},
		{
			"bufferView":3,
			"componentType":5123,
			"count":3327,
			"type":"SCALAR"
		},
		{
			"bufferView":4,
			"componentType":5126,
			"count":202,
			"max":[
				0.16029229760169983,
				0.2528893053531647,
				0.38524124026298523
			],
			"min":[
				-0.16817280650138855,
				0.12117637693881989,
				-0.3993399441242218
			],
			"type":"VEC3"
		},
		{
			"bufferView":5,
			"componentType":5126,
			"count":202,
			"type":"VEC3"
		},
		{
			"bufferView":6,
			"componentType":5126,
			"count":202,
			"type":"VEC2"
		},
		{
			"bufferView":7,
			"componentType":5123,
			"count":639,
			"type":"SCALAR"
		},
		{
			"bufferView":8,
			"componentType":5126,
			"count":1428,
			"max":[
				0.17803724110126495,
				0.11613200604915619,
				0.312452107667923
			],
			"min":[
				-0.17972297966480255,
				-3.655207336805688e-08,
				-0.28926050662994385
			],
			"type":"VEC3"
		},
		{
			"bufferView":9,
			"componentType":5126,
			"count":1428,
			"type":"VEC3"
		},
		{
			"bufferView":10,
			"componentType":5126,
			"count":1428,
			"type":"VEC2"
		},
		{
			"bufferView":11,
			"componentType":5123,
			"count":7680,
			"type":"SCALAR"
		},
		{
			"bufferView":12,
			"componentType":5126,
			"count":752,
			"max":[
				0.170146182179451,
				0.08450774848461151,
				0.28064030408859253
			],
			"min":[
				-0.1718319207429886,
				0.03162422031164169,
				-0.2574487030506134
			],
			"type":"VEC3"
		},
		{
			"bufferView":13,
			"componentType":5126,
			"count":752,
			"type":"VEC3"
		},
		{
			"bufferView":14,
			"componentType":5126,
			"count":752,
			"type":"VEC2"
		},
		{
			"bufferView":15,
			"componentType":5123,
			"count":3600,
			"type":"SCALAR"
		}
	],
	"bufferViews":[
		{
			"buffer":0,
			"byteLength":12192,
			"byteOffset":0,
			"target":34962
		},
		{
			"buffer":0,
			"byteLength":12192,
			"byteOffset":12192,
			"target":34962
		},
		{
			"buffer":0,
			"byteLength":8128,
			"byteOffset":24384,
			"target":34962
		},
		{
			"buffer":0,
			"byteLength":6654,
			"byteOffset":32512,
			"target":34963
		},
		{
			"buffer":0,
			"byteLength":2424,
			"byteOffset":39168,
			"target":34962
		},
		{
			"buffer":0,
			"byteLength":2424,
			"byteOffset":41592,
			"target":34962
		},
		{
			"buffer":0,
			"byteLength":1616,
			"byteOffset":44016,
			"target":34962
		},
		{
			"buffer":0,
			"byteLength":1278,
			"byteOffset":45632,
			"target":34963
		},
		{
			"buffer":0,
			"byteLength":17136,
			"byteOffset":46912,
			"target":34962
		},
		{
			"buffer":0,
			"byteLength":17136,
			"byteOffset":64048,
			"target":34962
		},
		{
			"buffer":0,
			"byteLength":11424,
			"byteOffset":81184,
			"target":34962
		},
		{
			"buffer":0,
			"byteLength":15360,
			"byteOffset":92608,
			"target":34963
		},
		{
			"buffer":0,
			"byteLength":9024,
			"byteOffset":107968,
			"target":34962
		},
		{
			"buffer":0,
			"byteLength":9024,
			"byteOffset":116992,
			"target":34962
		},
		{
			"buffer":0,
			"byteLength":6016,
			"byteOffset":126016,
			"target":34962
		},
		{
			"buffer":0,
			"byteLength":7200,
			"byteOffset":132032,
			"target":34963
		}
	],
	"buffers":[
		{
			"byteLength":139232,
			"uri":"Car.bin"
		}
	]
}
