{
	"asset":{
		"generator":"Khronos glTF Blender I/O v4.0.44",
		"version":"2.0"
	},
	"extensionsUsed":[
		"KHR_materials_specular",
		"KHR_materials_ior"
	],
	"scene":0,
	"scenes":[
		{
			"name":"Scene",
			"nodes":[
				2
			]
		}
	],
	"nodes":[
		{
			"mesh":0,
			"name":"\u9876\u724c",
			"translation":[
				-0.4627872705459595,
				0.590329110622406,
				0.05782519280910492
			]
		},
		{
			"mesh":1,
			"name":"\u9876\u724c\u6587\u5b57",
			"translation":[
				-0.4627872705459595,
				0.590329110622406,
				0.05782519280910492
			]
		},
		{
			"children":[
				0,
				1
			],
			"name":"Group001",
			"translation":[
				-0.00013840198516845703,
				0,
				-0.014217630960047245
			]
		}
	],
	"materials":[
		{
			"alphaMode":"BLEND",
			"doubleSided":true,
			"extensions":{
				"KHR_materials_specular":{
					"specularFactor":0
				},
				"KHR_materials_ior":{
					"ior":1.4500000476837158
				}
			},
			"name":"Oc\u900f\u660e1",
			"pbrMetallicRoughness":{
				"baseColorFactor":[
					0.800000011920929,
					0.800000011920929,
					0.800000011920929,
					0.6000000238418579
				],
				"metallicFactor":0.4000000059604645,
				"roughnessFactor":0.5899999737739563
			}
		},
		{
			"alphaMode":"BLEND",
			"doubleSided":true,
			"emissiveFactor":[
				0.20000000298023224,
				0.20000000298023224,
				0.20000000298023224
			],
			"extensions":{
				"KHR_materials_specular":{
					"specularFactor":0
				},
				"KHR_materials_ior":{
					"ior":1.4500000476837158
				}
			},
			"name":"\u767d\u827220%_1",
			"pbrMetallicRoughness":{
				"baseColorFactor":[
					0.800000011920929,
					0.800000011920929,
					0.800000011920929,
					0.20000000298023224
				],
				"metallicFactor":0,
				"roughnessFactor":0.6000000238418579
			}
		},
		{
			"doubleSided":true,
			"emissiveFactor":[
				0.00781997155874925,
				0.10000000149011612,
				0.0013701329211910501
			],
			"extensions":{
				"KHR_materials_specular":{
					"specularFactor":0
				},
				"KHR_materials_ior":{
					"ior":1.4500000476837158
				}
			},
			"name":"\u7eff\u8272",
			"pbrMetallicRoughness":{
				"baseColorFactor":[
					0.07819971442222595,
					1,
					0.013701329007744789,
					1
				],
				"metallicFactor":0,
				"roughnessFactor":0
			}
		}
	],
	"meshes":[
		{
			"name":"\u7f51\u683c.004",
			"primitives":[
				{
					"attributes":{
						"POSITION":0,
						"NORMAL":1,
						"TEXCOORD_0":2
					},
					"indices":3,
					"material":0
				},
				{
					"attributes":{
						"POSITION":4,
						"NORMAL":5,
						"TEXCOORD_0":6
					},
					"indices":7,
					"material":1
				},
				{
					"attributes":{
						"POSITION":8,
						"NORMAL":9,
						"TEXCOORD_0":10
					},
					"indices":11,
					"material":2
				}
			]
		},
		{
			"name":"\u7f51\u683c.003",
			"primitives":[
				{
					"attributes":{
						"POSITION":12,
						"NORMAL":13,
						"TEXCOORD_0":14
					},
					"indices":15,
					"material":0
				},
				{
					"attributes":{
						"POSITION":16,
						"NORMAL":17,
						"TEXCOORD_0":18
					},
					"indices":19,
					"material":1
				},
				{
					"attributes":{
						"POSITION":20,
						"NORMAL":21,
						"TEXCOORD_0":22
					},
					"indices":23,
					"material":2
				}
			]
		}
	],
	"accessors":[
		{
			"bufferView":0,
			"componentType":5126,
			"count":432,
			"max":[
				1.622438907623291,
				0.6229441165924072,
				-0.02885967493057251
			],
			"min":[
				-0.6968852877616882,
				-0.4700993597507477,
				-0.047217369079589844
			],
			"type":"VEC3"
		},
		{
			"bufferView":1,
			"componentType":5126,
			"count":432,
			"type":"VEC3"
		},
		{
			"bufferView":2,
			"componentType":5126,
			"count":432,
			"type":"VEC2"
		},
		{
			"bufferView":3,
			"componentType":5123,
			"count":852,
			"type":"SCALAR"
		},
		{
			"bufferView":4,
			"componentType":5126,
			"count":9744,
			"max":[
				1.6249363422393799,
				0.6254415512084961,
				-0.026361584663391113
			],
			"min":[
				-0.6993618607521057,
				-0.4725777804851532,
				-0.04471933841705322
			],
			"type":"VEC3"
		},
		{
			"bufferView":5,
			"componentType":5126,
			"count":9744,
			"type":"VEC3"
		},
		{
			"bufferView":6,
			"componentType":5126,
			"count":9744,
			"type":"VEC2"
		},
		{
			"bufferView":7,
			"componentType":5123,
			"count":15552,
			"type":"SCALAR"
		},
		{
			"bufferView":8,
			"componentType":5126,
			"count":36,
			"max":[
				0.5604753494262695,
				-0.5154271721839905,
				-0.032379232347011566
			],
			"min":[
				0.3659137487411499,
				-0.5905427932739258,
				-0.08928874880075455
			],
			"type":"VEC3"
		},
		{
			"bufferView":9,
			"componentType":5126,
			"count":36,
			"type":"VEC3"
		},
		{
			"bufferView":10,
			"componentType":5126,
			"count":36,
			"type":"VEC2"
		},
		{
			"bufferView":11,
			"componentType":5123,
			"count":48,
			"type":"SCALAR"
		},
		{
			"bufferView":12,
			"componentType":5126,
			"count":3154,
			"max":[
				0.8768793344497681,
				0.17408990859985352,
				-0.0297052264213562
			],
			"min":[
				-0.5246906280517578,
				-0.312233030796051,
				-0.03701120615005493
			],
			"type":"VEC3"
		},
		{
			"bufferView":13,
			"componentType":5126,
			"count":3154,
			"type":"VEC3"
		},
		{
			"bufferView":14,
			"componentType":5126,
			"count":3154,
			"type":"VEC2"
		},
		{
			"bufferView":15,
			"componentType":5123,
			"count":7764,
			"type":"SCALAR"
		},
		{
			"bufferView":16,
			"componentType":5126,
			"count":404,
			"max":[
				0.7595255970954895,
				-0.062943235039711,
				-0.03413860499858856
			],
			"min":[
				0.5926575660705566,
				-0.30802860856056213,
				-0.03557083010673523
			],
			"type":"VEC3"
		},
		{
			"bufferView":17,
			"componentType":5126,
			"count":404,
			"type":"VEC3"
		},
		{
			"bufferView":18,
			"componentType":5126,
			"count":404,
			"type":"VEC2"
		},
		{
			"bufferView":19,
			"componentType":5123,
			"count":1140,
			"type":"SCALAR"
		},
		{
			"bufferView":20,
			"componentType":5126,
			"count":1304,
			"max":[
				-0.03999754786491394,
				0.4812874495983124,
				-0.0319383442401886
			],
			"min":[
				-0.5165354609489441,
				0.3121553063392639,
				-0.03439384698867798
			],
			"type":"VEC3"
		},
		{
			"bufferView":21,
			"componentType":5126,
			"count":1304,
			"type":"VEC3"
		},
		{
			"bufferView":22,
			"componentType":5126,
			"count":1304,
			"type":"VEC2"
		},
		{
			"bufferView":23,
			"componentType":5123,
			"count":3240,
			"type":"SCALAR"
		}
	],
	"bufferViews":[
		{
			"buffer":0,
			"byteLength":5184,
			"byteOffset":0,
			"target":34962
		},
		{
			"buffer":0,
			"byteLength":5184,
			"byteOffset":5184,
			"target":34962
		},
		{
			"buffer":0,
			"byteLength":3456,
			"byteOffset":10368,
			"target":34962
		},
		{
			"buffer":0,
			"byteLength":1704,
			"byteOffset":13824,
			"target":34963
		},
		{
			"buffer":0,
			"byteLength":116928,
			"byteOffset":15528,
			"target":34962
		},
		{
			"buffer":0,
			"byteLength":116928,
			"byteOffset":132456,
			"target":34962
		},
		{
			"buffer":0,
			"byteLength":77952,
			"byteOffset":249384,
			"target":34962
		},
		{
			"buffer":0,
			"byteLength":31104,
			"byteOffset":327336,
			"target":34963
		},
		{
			"buffer":0,
			"byteLength":432,
			"byteOffset":358440,
			"target":34962
		},
		{
			"buffer":0,
			"byteLength":432,
			"byteOffset":358872,
			"target":34962
		},
		{
			"buffer":0,
			"byteLength":288,
			"byteOffset":359304,
			"target":34962
		},
		{
			"buffer":0,
			"byteLength":96,
			"byteOffset":359592,
			"target":34963
		},
		{
			"buffer":0,
			"byteLength":37848,
			"byteOffset":359688,
			"target":34962
		},
		{
			"buffer":0,
			"byteLength":37848,
			"byteOffset":397536,
			"target":34962
		},
		{
			"buffer":0,
			"byteLength":25232,
			"byteOffset":435384,
			"target":34962
		},
		{
			"buffer":0,
			"byteLength":15528,
			"byteOffset":460616,
			"target":34963
		},
		{
			"buffer":0,
			"byteLength":4848,
			"byteOffset":476144,
			"target":34962
		},
		{
			"buffer":0,
			"byteLength":4848,
			"byteOffset":480992,
			"target":34962
		},
		{
			"buffer":0,
			"byteLength":3232,
			"byteOffset":485840,
			"target":34962
		},
		{
			"buffer":0,
			"byteLength":2280,
			"byteOffset":489072,
			"target":34963
		},
		{
			"buffer":0,
			"byteLength":15648,
			"byteOffset":491352,
			"target":34962
		},
		{
			"buffer":0,
			"byteLength":15648,
			"byteOffset":507000,
			"target":34962
		},
		{
			"buffer":0,
			"byteLength":10432,
			"byteOffset":522648,
			"target":34962
		},
		{
			"buffer":0,
			"byteLength":6480,
			"byteOffset":533080,
			"target":34963
		}
	],
	"buffers":[
		{
			"byteLength":539560,
			"uri":"%E9%A1%B6%E7%89%8C.bin"
		}
	]
}
